<?xml version="1.0" standalone="no"?>
<!DOCTYPE svg PUBLIC "-//W3C//DTD SVG 20010904//EN"
 "http://www.w3.org/TR/2001/REC-SVG-20010904/DTD/svg10.dtd">
<svg version="1.0" xmlns="http://www.w3.org/2000/svg"
 width="120.000000pt" height="120.000000pt" viewBox="0 0 120.000000 120.000000"
 preserveAspectRatio="xMidYMid meet">
<metadata>
Created by potrace 1.11, written by Peter Selinger 2001-2013
</metadata>
<g transform="translate(0.000000,120.000000) scale(0.100000,-0.100000)"
fill="#000000" stroke="none">
<path d="M401 1187 c-21 -21 -12 -52 19 -66 17 -7 38 -24 46 -36 18 -27 46
-126 38 -134 -3 -3 -26 6 -52 21 -26 14 -63 29 -84 33 -42 8 -55 -6 -83 -85
-8 -25 -18 -51 -20 -59 -4 -10 -10 -7 -23 8 -14 18 -30 22 -95 25 -43 2 -80 6
-83 9 -10 10 6 27 62 62 35 23 54 42 54 54 0 25 -10 31 -74 45 -64 14 -69 34
-20 80 26 25 33 36 22 36 -49 0 -93 -39 -103 -90 -5 -25 42 -79 69 -81 9 -1
21 -3 26 -4 6 -1 16 -3 23 -4 6 -1 -10 -15 -36 -31 -26 -17 -51 -38 -54 -46
-11 -28 23 -48 85 -50 102 -3 102 -3 102 -23 0 -10 -16 -42 -35 -70 -30 -43
-33 -52 -20 -57 9 -4 17 -5 19 -3 25 36 46 60 46 56 0 -8 -59 -178 -150 -432
-39 -110 -72 -216 -72 -235 0 -28 8 -42 41 -71 27 -24 49 -35 65 -34 29 4 129
52 371 178 99 51 243 126 319 166 77 39 146 77 153 83 28 23 15 58 -50 143
l-39 49 29 9 c63 18 104 25 208 33 93 7 97 9 93 41 -3 27 -5 28 -58 27 -103
-1 -233 -23 -304 -50 -9 -3 -38 16 -73 48 -94 84 -126 112 -165 141 -20 16
-36 36 -36 45 3 42 -15 141 -31 177 -30 66 -104 118 -130 92z"/>
<path d="M1121 1176 c-8 -10 -8 -22 3 -47 15 -38 12 -79 -7 -91 -6 -5 -37 -6
-68 -3 -46 4 -59 2 -72 -13 -13 -15 -15 -25 -6 -55 5 -20 14 -37 20 -37 6 0 8
-4 5 -9 -3 -5 1 -12 10 -15 8 -3 12 -10 9 -16 -11 -19 -43 -10 -96 26 -30 20
-69 38 -86 41 -29 5 -34 2 -44 -23 -13 -35 -4 -165 12 -175 25 -15 55 5 50 34
-5 32 -7 114 -4 125 7 17 28 15 44 -4 19 -23 62 -43 103 -48 28 -3 38 0 46 14
15 29 12 46 -16 87 -23 34 -24 38 -7 44 9 3 32 1 49 -4 50 -15 101 -1 119 33
17 33 15 62 -10 114 -18 38 -35 45 -54 22z"/>
<path d="M557 1132 c-21 -23 -21 -24 2 -51 20 -22 20 -22 45 -4 31 22 31 24 6
51 -25 27 -32 27 -53 4z"/>
<path d="M919 1129 c-20 -20 -20 -21 -2 -42 10 -12 19 -23 19 -25 1 -2 14 6
27 19 24 20 25 23 10 45 -19 29 -27 30 -54 3z"/>
<path d="M370 1085 c-23 -24 -23 -25 -5 -45 23 -25 26 -25 55 0 l24 21 -25 25
-25 25 -24 -26z"/>
<path d="M232 1027 l-22 -23 24 -23 c21 -20 27 -21 45 -9 25 15 26 21 5 53
-20 31 -25 31 -52 2z"/>
<path d="M622 948 c-20 -23 -20 -23 -1 -47 l20 -25 26 26 c24 25 25 26 7 47
-23 26 -26 26 -52 -1z"/>
<path d="M93 612 c-5 -4 -15 -17 -22 -29 -9 -19 -8 -24 11 -37 30 -22 35 -20
52 12 13 25 12 28 -8 44 -13 9 -27 13 -33 10z"/>
<path d="M1002 502 c-20 -15 -22 -22 -13 -45 12 -31 27 -34 58 -9 l23 17 -23
27 c-21 27 -23 27 -45 10z"/>
<path d="M1123 421 c-21 -17 -21 -19 -4 -44 18 -27 24 -26 70 9 6 5 -28 54
-37 54 -4 -1 -17 -9 -29 -19z"/>
<path d="M1018 295 c-13 -29 -4 -43 31 -47 19 -2 26 3 31 23 6 22 4 29 -17 38
-32 15 -32 15 -45 -14z"/>
<path d="M796 295 c-18 -13 -18 -16 -2 -40 14 -21 20 -23 36 -15 27 15 32 27
20 50 -13 23 -28 25 -54 5z"/>
<path d="M1063 174 c-31 -13 -32 -14 -16 -44 12 -25 19 -29 36 -24 36 11 42
22 26 52 -13 28 -15 29 -46 16z"/>
</g>
</svg>
